<svg xmlns="http://www.w3.org/2000/svg" width="1180" height="600" viewBox="0 0 1180 600">
  <rect width="1180" height="600" fill="#f7f9fc"/>
  <rect x="32" y="32" width="1116" height="536" rx="10" fill="#ffffff" stroke="#d8dee9"/>
  <text x="64" y="82" font-family="Arial, sans-serif" font-size="28" fill="#344054" font-weight="700">Create Custom Condition</text>
  <text x="64" y="128" font-family="Arial, sans-serif" font-size="18" fill="#667085">Template</text>
  <rect x="64" y="150" width="470" height="54" rx="6" fill="#eff8ff" stroke="#1570ef" stroke-width="2"/>
  <text x="88" y="184" font-family="Arial, sans-serif" font-size="18" fill="#175cd3" font-weight="700">Block Specific Package Versions</text>
  <text x="650" y="148" font-family="Arial, sans-serif" font-size="16" fill="#667085">Condition name</text>
  <rect x="650" y="170" width="330" height="46" rx="6" fill="#ffffff" stroke="#d0d5dd"/>
  <text x="672" y="200" font-family="Arial, sans-serif" font-size="18" fill="#344054">&lt;student-id&gt;-axios-1.7.2</text>
  <text x="64" y="258" font-family="Arial, sans-serif" font-size="16" fill="#667085">Package type</text>
  <rect x="64" y="280" width="250" height="46" rx="6" fill="#ffffff" stroke="#d0d5dd"/>
  <text x="86" y="310" font-family="Arial, sans-serif" font-size="18" fill="#344054">npm</text>
  <text x="64" y="370" font-family="Arial, sans-serif" font-size="16" fill="#667085">Package</text>
  <rect x="64" y="392" width="250" height="46" rx="6" fill="#ffffff" stroke="#d0d5dd"/>
  <text x="86" y="422" font-family="Arial, sans-serif" font-size="18" fill="#344054">axios</text>
  <text x="380" y="370" font-family="Arial, sans-serif" font-size="16" fill="#667085">Version</text>
  <rect x="380" y="392" width="250" height="46" rx="6" fill="#ffffff" stroke="#d0d5dd"/>
  <text x="402" y="422" font-family="Arial, sans-serif" font-size="18" fill="#344054">1.7.2</text>
  <rect x="64" y="490" width="130" height="48" rx="6" fill="#12b76a"/>
  <text x="106" y="521" font-family="Arial, sans-serif" font-size="18" fill="#ffffff" font-weight="700">Save</text>
</svg>
