<svg xmlns="http://www.w3.org/2000/svg" width="1180" height="640" viewBox="0 0 1180 640">
  <rect width="1180" height="640" fill="#f7f9fc"/>
  <rect x="32" y="32" width="1116" height="576" rx="10" fill="#ffffff" stroke="#d8dee9"/>
  <text x="64" y="82" font-family="Arial, sans-serif" font-size="28" fill="#344054" font-weight="700">Create Curation Policy</text>
  <text x="650" y="76" font-family="Arial, sans-serif" font-size="16" fill="#667085">Policy name</text>
  <rect x="650" y="96" width="360" height="44" rx="6" fill="#ffffff" stroke="#d0d5dd"/>
  <text x="672" y="124" font-family="Arial, sans-serif" font-size="17" fill="#344054">&lt;student-id&gt;-npm-curation-policy</text>
  <text x="64" y="132" font-family="Arial, sans-serif" font-size="18" fill="#667085">Scope</text>
  <rect x="64" y="154" width="460" height="56" rx="6" fill="#eff8ff" stroke="#1570ef" stroke-width="2"/>
  <text x="88" y="190" font-family="Arial, sans-serif" font-size="18" fill="#175cd3" font-weight="700">Specific remote repositories</text>
  <text x="64" y="260" font-family="Arial, sans-serif" font-size="18" fill="#667085">Remote repository</text>
  <rect x="64" y="284" width="760" height="64" rx="6" fill="#ffffff" stroke="#d0d5dd"/>
  <rect x="88" y="306" width="22" height="22" rx="4" fill="#12b76a"/>
  <text x="126" y="324" font-family="Arial, sans-serif" font-size="20" fill="#344054" font-weight="700">&lt;student-id&gt;-npm-remote</text>
  <text x="520" y="324" font-family="Arial, sans-serif" font-size="16" fill="#667085">npm registry - https://registry.npmjs.org</text>
  <text x="64" y="408" font-family="Arial, sans-serif" font-size="18" fill="#667085">Condition</text>
  <rect x="64" y="432" width="360" height="46" rx="6" fill="#ffffff" stroke="#d0d5dd"/>
  <text x="86" y="462" font-family="Arial, sans-serif" font-size="18" fill="#344054">axios 1.7.2</text>
  <text x="500" y="408" font-family="Arial, sans-serif" font-size="18" fill="#667085">Action</text>
  <rect x="500" y="432" width="160" height="46" rx="6" fill="#fef3f2" stroke="#f04438" stroke-width="2"/>
  <text x="548" y="462" font-family="Arial, sans-serif" font-size="18" fill="#b42318" font-weight="700">Block</text>
  <rect x="64" y="536" width="130" height="48" rx="6" fill="#12b76a"/>
  <text x="106" y="567" font-family="Arial, sans-serif" font-size="18" fill="#ffffff" font-weight="700">Save</text>
</svg>
