<svg xmlns="http://www.w3.org/2000/svg" viewBox="0 0 64 108" width="64" height="108">
  <g>
    <animateTransform attributeName="transform" attributeType="XML"
      type="translate" values="0,0; 0,-7; 0,0" dur="3s"
      repeatCount="indefinite" calcMode="spline"
      keyTimes="0;0.5;1" keySplines="0.42,0,0.58,1;0.42,0,0.58,1"/>
    <rect x="16" y="0" width="32" height="4" fill="#00e5ff"/>
    <rect x="12" y="4" width="40" height="4" fill="#00e5ff"/>
    <rect x="8" y="8" width="8" height="4" fill="#00e5ff"/><rect x="16" y="8" width="32" height="4" fill="#001133"/><rect x="48" y="8" width="8" height="4" fill="#00e5ff"/>
    <rect x="8" y="12" width="4" height="4" fill="#00e5ff"/><rect x="12" y="12" width="4" height="4" fill="#001133"/><rect x="16" y="12" width="32" height="4" fill="#112244"/><rect x="48" y="12" width="4" height="4" fill="#001133"/><rect x="52" y="12" width="4" height="4" fill="#00e5ff"/>
    <rect x="8" y="16" width="4" height="4" fill="#00e5ff"/><rect x="12" y="16" width="4" height="4" fill="#001133"/><rect x="16" y="16" width="32" height="4" fill="#112244"/><rect x="48" y="16" width="4" height="4" fill="#001133"/><rect x="52" y="16" width="4" height="4" fill="#00e5ff"/>
    <rect x="8" y="20" width="4" height="4" fill="#00e5ff"/><rect x="12" y="20" width="4" height="4" fill="#001133"/><rect x="16" y="20" width="4" height="4" fill="#112244"/><rect x="20" y="20" width="8" height="4" fill="#00ffaa"/><rect x="28" y="20" width="8" height="4" fill="#112244"/><rect x="36" y="20" width="8" height="4" fill="#00ffaa"/><rect x="44" y="20" width="4" height="4" fill="#112244"/><rect x="48" y="20" width="4" height="4" fill="#001133"/><rect x="52" y="20" width="4" height="4" fill="#00e5ff"/>
    <rect x="8" y="24" width="4" height="4" fill="#00e5ff"/><rect x="12" y="24" width="4" height="4" fill="#001133"/><rect x="16" y="24" width="32" height="4" fill="#112244"/><rect x="48" y="24" width="4" height="4" fill="#001133"/><rect x="52" y="24" width="4" height="4" fill="#00e5ff"/>
    <rect x="12" y="28" width="4" height="4" fill="#00e5ff"/><rect x="16" y="28" width="8" height="4" fill="#001133"/><rect x="24" y="28" width="16" height="4" fill="#112244"/><rect x="40" y="28" width="8" height="4" fill="#001133"/><rect x="48" y="28" width="4" height="4" fill="#00e5ff"/>
    <rect x="16" y="32" width="32" height="4" fill="#00e5ff"/>
    <rect x="8" y="36" width="48" height="4" fill="#0044bb"/>
    <rect x="4" y="40" width="8" height="4" fill="#0044bb"/><rect x="12" y="40" width="4" height="4" fill="#00e5ff"/><rect x="16" y="40" width="32" height="4" fill="#0044bb"/><rect x="48" y="40" width="4" height="4" fill="#00e5ff"/><rect x="52" y="40" width="8" height="4" fill="#0044bb"/>
    <rect x="4" y="44" width="8" height="4" fill="#0044bb"/><rect x="12" y="44" width="4" height="4" fill="#00e5ff"/><rect x="16" y="44" width="8" height="4" fill="#0044bb"/><rect x="24" y="44" width="16" height="4" fill="#00e5ff"/><rect x="40" y="44" width="8" height="4" fill="#0044bb"/><rect x="48" y="44" width="4" height="4" fill="#00e5ff"/><rect x="52" y="44" width="8" height="4" fill="#0044bb"/>
    <rect x="4" y="48" width="20" height="4" fill="#0044bb"/><rect x="24" y="48" width="16" height="4" fill="#00e5ff"/><rect x="40" y="48" width="20" height="4" fill="#0044bb"/>
    <rect x="8" y="52" width="48" height="4" fill="#0044bb"/>
    <rect x="4" y="56" width="4" height="4" fill="#001133"/><rect x="8" y="56" width="48" height="4" fill="#0044bb"/><rect x="56" y="56" width="4" height="4" fill="#001133"/>
    <rect x="8" y="60" width="8" height="4" fill="#001133"/><rect x="16" y="60" width="32" height="4" fill="#0044bb"/><rect x="48" y="60" width="8" height="4" fill="#001133"/>
    <rect x="12" y="64" width="8" height="4" fill="#0044bb"/><rect x="44" y="64" width="8" height="4" fill="#0044bb"/>
    <rect x="12" y="68" width="8" height="4" fill="#0044bb"/><rect x="44" y="68" width="8" height="4" fill="#0044bb"/>
    <rect x="12" y="72" width="8" height="4" fill="#0044bb"/><rect x="44" y="72" width="8" height="4" fill="#0044bb"/>
    <rect x="12" y="76" width="4" height="4" fill="#001133"/><rect x="16" y="76" width="4" height="4" fill="#0044bb"/><rect x="44" y="76" width="4" height="4" fill="#0044bb"/><rect x="48" y="76" width="4" height="4" fill="#001133"/>
    <rect x="12" y="80" width="4" height="4" fill="#001133"/><rect x="16" y="80" width="4" height="4" fill="#0044bb"/><rect x="44" y="80" width="4" height="4" fill="#0044bb"/><rect x="48" y="80" width="4" height="4" fill="#001133"/>
    <rect x="12" y="84" width="4" height="4" fill="#001133"/><rect x="16" y="84" width="4" height="4" fill="#0044bb"/><rect x="44" y="84" width="4" height="4" fill="#0044bb"/><rect x="48" y="84" width="4" height="4" fill="#001133"/>
    <rect x="8" y="88" width="8" height="4" fill="#334455"/><rect x="16" y="88" width="4" height="4" fill="#0044bb"/><rect x="44" y="88" width="4" height="4" fill="#0044bb"/><rect x="48" y="88" width="8" height="4" fill="#334455"/>
    <rect x="4" y="92" width="16" height="4" fill="#334455"/><rect x="44" y="92" width="16" height="4" fill="#334455"/>
    <text x="32" y="105" text-anchor="middle" font-size="6" fill="#00e5ff" font-family="Courier New, monospace" opacity="0.8" letter-spacing="1">GUARDIAN-1</text>
  </g>
</svg>
